<svg width="58" height="57" xmlns="http://www.w3.org/2000/svg" xmlns:xlink="http://www.w3.org/1999/xlink">
  <defs/>
  <defs>
    <pattern id="c" patternUnits="objectBoundingBox" width="100%" height="100%">
      <use xlink:href="#a" transform="scale(1.10833)"/>
    </pattern>
    <path id="b" d="M1 1442h1439v1463H1z"/>
  </defs>
  <g transform="translate(-585 -2468)" fill="none" fill-rule="evenodd">
    <use fill="#7B3EFE" xlink:href="#b"/>
    <use fill-opacity=".4" fill="url(#c)" xlink:href="#b"/>
    <rect fill="#5E28D2" x="203" y="2415" width="1035" height="348" rx="10"/>
    <g fill="#FFF" fill-rule="nonzero" stroke="#FFF">
      <path d="M633.193 2502.684c-4.65 0-8.509 3.772-8.509 8.509 0 4.65 3.772 8.509 8.509 8.509 4.65 0 8.509-3.772 8.509-8.509 0-3.158-1.755-5.965-4.386-7.456.175-1.228.263-2.544.263-3.772 0-8.07-4.035-15.526-10.877-20l-1.58 2.456a20.869 20.869 0 019.562 17.544c0 .965-.088 1.842-.175 2.807-.439-.088-.877-.088-1.316-.088zm0 14.123c-3.07 0-5.614-2.544-5.614-5.614s2.544-5.614 5.614-5.614 5.614 2.544 5.614 5.614c-.088 3.07-2.544 5.614-5.614 5.614zm-9.123 4.825l-1.228-2.632c-2.807 1.404-5.877 2.105-9.035 2.105-4.65 0-9.123-1.579-12.807-4.386 1.228-1.49 2.018-3.42 2.018-5.438 0-4.65-3.772-8.51-8.51-8.51-4.648 0-8.508 3.773-8.508 8.51 0 4.649 3.772 8.508 8.509 8.508 1.491 0 2.982-.438 4.21-1.14 4.21 3.509 9.562 5.351 15.088 5.351 3.597 0 7.018-.79 10.263-2.368zm-35.175-10.439c0-3.07 2.544-5.614 5.614-5.614s5.614 2.544 5.614 5.614-2.544 5.614-5.614 5.614a5.597 5.597 0 01-5.614-5.614zm1.052-12.105l2.895.087a20.958 20.958 0 0110.088-17.193c.79-.526 1.666-.964 2.544-1.315 1.228 3.07 4.298 5.35 7.894 5.35 4.65 0 8.51-3.771 8.51-8.508 0-4.65-3.773-8.509-8.51-8.509-4.649 0-8.508 3.772-8.508 8.509v.263c-1.228.439-2.369 1.053-3.421 1.754-6.843 4.123-11.14 11.404-11.492 19.562zm23.51-27.193c3.07 0 5.613 2.544 5.613 5.614s-2.544 5.614-5.614 5.614-5.614-2.544-5.614-5.614a5.597 5.597 0 015.614-5.614z"/>
    </g>
  </g>
</svg>
