<svg width="512" height="417" xmlns="http://www.w3.org/2000/svg">
  <path d="M459.392 104.077C480.213 89.293 497.728 70.84 512 49.592v-.021c-19.05 8.341-39.317 13.888-60.48 16.576 21.76-12.992 38.379-33.408 46.187-58.006-20.288 12.096-42.688 20.63-66.56 25.408C411.883 13.027 384.427.333 354.475.333c-58.112 0-104.896 47.168-104.896 104.982 0 8.32.704 16.32 2.432 23.936-87.254-4.267-164.48-46.08-216.363-109.803-9.045 15.723-14.379 33.707-14.379 53.056 0 36.352 18.71 68.565 46.635 87.232-16.875-.32-33.408-5.227-47.424-12.928v1.152c0 51.008 36.373 93.376 84.096 103.147-8.555 2.346-17.856 3.456-27.52 3.456-6.72 0-13.504-.384-19.861-1.792 13.589 41.557 52.202 72.128 98.069 73.13-35.712 27.926-81.067 44.758-130.155 44.758-8.597 0-16.853-.384-25.109-1.43 46.507 29.974 101.59 47.104 161.024 47.104 185.237 0 305.963-154.538 298.368-312.256z" fill-rule="nonzero"/>
</svg>